<svg width="77" height="91" viewBox="0 0 77 91" fill="none" xmlns="http://www.w3.org/2000/svg">
<path d="M7.0051 81.6515L0 0.648254H77L69.9855 81.6386L38.4532 90.6483L7.0051 81.6515Z" fill="#1572B6"/>
<path d="M38.5 83.7632L63.9816 76.4829L69.9762 7.27293H38.5V83.7632Z" fill="#33A9DC"/>
<path d="M38.5 36.6194H51.2564L52.136 26.4461H38.5V16.5108H62.6717L62.4409 19.1754L60.0736 46.5547H38.5V36.6194V36.6194Z" fill="white"/>
<path d="M38.5592 62.4205L38.5155 62.4333L27.7802 59.444L27.094 51.5208H17.416L18.7665 67.1198L38.5124 72.7705L38.5592 72.7576V62.4205V62.4205Z" fill="#EBEBEB"/>
<path d="M50.4361 46.1337L49.2758 59.4376L38.5249 62.4268V72.764L58.2864 67.1197L58.433 65.4418L60.1078 46.1337H50.4361V46.1337Z" fill="white"/>
<path d="M38.5346 16.5108V26.4462H15.2487L15.0553 24.2122L14.6156 19.1754L14.3848 16.5108H38.5346V16.5108Z" fill="#EBEBEB"/>
<path d="M38.5001 36.6193V46.5546H27.8989L27.7055 44.3207L27.2689 39.2839L27.0381 36.6193H38.5001V36.6193Z" fill="#EBEBEB"/>
</svg>
