<svg width="78" height="91" viewBox="0 0 78 91" fill="none" xmlns="http://www.w3.org/2000/svg">
<path d="M7.42953 81.6515L0.421875 0.648254H77.4219L70.4049 81.6386L38.8751 90.6483L7.42953 81.6515Z" fill="#E44F26"/>
<path d="M38.9219 83.7634L64.4014 76.483L70.3955 7.27299H38.9219V83.7634Z" fill="#F1662A"/>
<path d="M38.9217 37.3133H26.1663L25.2868 27.1401H38.9217V17.2047H14.752L14.9827 19.8726L17.3498 47.2486H38.9217V37.3133V37.3133Z" fill="#EBEBEB"/>
<path d="M38.9217 63.1145L38.8781 63.1274L28.1436 60.1413L27.4575 52.2181H17.7803L19.1307 67.8138L38.8781 73.4645L38.9217 73.4517V63.1145Z" fill="#EBEBEB"/>
<path d="M38.8877 37.3136V47.2489H50.7574L49.6409 60.135L38.8877 63.1243V73.4614L58.6507 67.8139L58.7942 66.1361L61.0583 39.9814L61.2954 37.3136H38.8877V37.3136Z" fill="white"/>
<path d="M38.8877 17.2047V27.1401H62.1717L62.3651 24.9094L62.8048 19.8726L63.0356 17.2047H38.8877V17.2047Z" fill="white"/>
</svg>
