<svg width="90" height="91" viewBox="0 0 90 91" fill="none" xmlns="http://www.w3.org/2000/svg">
<path d="M75 0.648254H15C11.0248 0.658155 7.21524 2.24169 4.40434 5.05259C1.59343 7.86349 0.00990093 11.6731 0 15.6483V75.6483C0 83.8983 6.75 90.6483 15 90.6483H75C83.25 90.6483 90 83.8983 90 75.6483V15.6483C90 7.39825 83.25 0.648254 75 0.648254ZM66.7987 63.8545C66.0487 65.662 64.86 67.2558 63.3375 68.482C61.7625 69.757 59.7675 70.807 57.3112 71.557C54.8588 72.3183 51.9412 72.7008 48.5625 72.7008H24.4425V20.2008H49.95C54.6675 20.2008 58.4475 21.262 61.275 23.4258C64.125 25.6008 65.5425 28.8408 65.5425 33.2133C65.5425 35.857 64.8975 38.1258 63.6 40.0008C62.31 41.8645 60.45 43.3233 58.05 44.3358V44.5083C61.2525 45.1833 63.7313 46.702 65.3625 49.0645C66.9938 51.427 67.83 54.412 67.83 58.0158C67.83 60.0333 67.44 61.9533 66.705 63.7458L66.7987 63.847V63.8545ZM56.3887 50.917C54.8512 49.5108 52.6913 48.8245 49.9013 48.8245H33.6937V65.2045H49.9463C52.7213 65.2045 54.8962 64.4845 56.4337 63.0295C57.9712 61.5858 58.7587 59.527 58.7587 56.8795C58.7325 54.292 57.9712 52.2895 56.4337 50.917H56.37H56.3887ZM54.1388 40.3308C55.6238 39.0708 56.3513 37.267 56.3513 34.9158C56.3513 32.2758 55.695 30.4008 54.3637 29.3283C53.0437 28.2595 51.1387 27.7045 48.6337 27.7045H33.6337V42.1908H48.6337C50.82 42.1908 52.6837 41.5533 54.1237 40.3308H54.1388Z" fill="#790FF1"/>
</svg>
